<svg width="32" height="32" viewBox="0 0 32 32" fill="none" xmlns="http://www.w3.org/2000/svg">
<path d="M15.3333 22H16.6667V14.6667H15.3333V22ZM16 12.7693C16.2329 12.7693 16.428 12.6907 16.5853 12.5333C16.7427 12.376 16.8209 12.1809 16.82 11.948C16.8191 11.7151 16.7404 11.5204 16.584 11.364C16.4276 11.2076 16.2329 11.1289 16 11.128C15.7671 11.1271 15.5724 11.2058 15.416 11.364C15.2596 11.5222 15.1809 11.7173 15.18 11.9493C15.1791 12.1813 15.2578 12.376 15.416 12.5333C15.5742 12.6907 15.7689 12.7693 16 12.7693ZM16.004 28C14.3444 28 12.7844 27.6853 11.324 27.056C9.86356 26.4258 8.59289 25.5707 7.512 24.4907C6.43111 23.4107 5.57556 22.1413 4.94533 20.6827C4.31511 19.224 4 17.6644 4 16.004C4 14.3436 4.31511 12.7836 4.94533 11.324C5.57467 9.86356 6.42844 8.59289 7.50667 7.512C8.58489 6.43111 9.85467 5.57556 11.316 4.94533C12.7773 4.31511 14.3373 4 15.996 4C17.6547 4 19.2147 4.31511 20.676 4.94533C22.1364 5.57467 23.4071 6.42889 24.488 7.508C25.5689 8.58711 26.4244 9.85689 27.0547 11.3173C27.6849 12.7778 28 14.3373 28 15.996C28 17.6547 27.6853 19.2147 27.056 20.676C26.4267 22.1373 25.5716 23.408 24.4907 24.488C23.4098 25.568 22.1404 26.4236 20.6827 27.0547C19.2249 27.6858 17.6653 28.0009 16.004 28ZM16 26.6667C18.9778 26.6667 21.5 25.6333 23.5667 23.5667C25.6333 21.5 26.6667 18.9778 26.6667 16C26.6667 13.0222 25.6333 10.5 23.5667 8.43333C21.5 6.36667 18.9778 5.33333 16 5.33333C13.0222 5.33333 10.5 6.36667 8.43333 8.43333C6.36667 10.5 5.33333 13.0222 5.33333 16C5.33333 18.9778 6.36667 21.5 8.43333 23.5667C10.5 25.6333 13.0222 26.6667 16 26.6667Z" fill="#2C2B2F"/>
</svg>
