<svg width="64" height="40" viewBox="0 0 64 40" fill="none" xmlns="http://www.w3.org/2000/svg">
<path d="M28.055 19C27.525 19 27.0867 18.8067 26.74 18.42C26.3933 18.0333 26.2578 17.5739 26.3333 17.0417L26.8433 13.055C27.0011 11.8772 27.5417 10.9067 28.465 10.1433C29.3883 9.38 30.4556 8.99889 31.6667 9C32.8778 9.00111 33.945 9.38278 34.8683 10.145C35.7917 10.9072 36.3322 11.8778 36.49 13.0567L37 17.045C37.0744 17.575 36.9389 18.0333 36.5933 18.42C36.2478 18.8067 35.8094 18.9994 35.2783 18.9983L28.055 19ZM27.9583 17.3333H35.375L34.8333 13.3333C34.7222 12.5556 34.3683 11.9167 33.7717 11.4167C33.175 10.9167 32.4733 10.6667 31.6667 10.6667C30.86 10.6667 30.1589 10.9167 29.5633 11.4167C28.9678 11.9167 28.6133 12.5556 28.5 13.3333L27.9583 17.3333ZM20 29.32V28.3067C20 27.6189 20.2 26.9756 20.6 26.3767C21.0011 25.7767 21.54 25.3111 22.2167 24.98C23.79 24.2256 25.3644 23.66 26.94 23.2833C28.5144 22.9056 30.09 22.7167 31.6667 22.7167C33.2433 22.7167 34.8194 22.9056 36.395 23.2833C37.9706 23.6611 39.5439 24.2267 41.115 24.98C41.7928 25.3111 42.3317 25.7767 42.7317 26.3767C43.1328 26.9756 43.3333 27.6189 43.3333 28.3067V29.32C43.3333 29.8089 43.1672 30.22 42.835 30.5533C42.5028 30.8844 42.0917 31.05 41.6017 31.05H21.7333C21.2433 31.05 20.8322 30.8839 20.5 30.5517C20.1678 30.2194 20.0011 29.8089 20 29.32ZM21.6667 29.385H41.6667V28.3067C41.6667 27.9378 41.5472 27.5906 41.3083 27.265C41.0706 26.9406 40.7411 26.6661 40.32 26.4417C38.9489 25.7772 37.5367 25.2683 36.0833 24.915C34.63 24.5617 33.1578 24.385 31.6667 24.385C30.1756 24.385 28.7033 24.5617 27.25 24.915C25.7967 25.2683 24.3844 25.7772 23.0133 26.4417C22.5911 26.6661 22.2617 26.9406 22.025 27.265C21.7861 27.5906 21.6667 27.9383 21.6667 28.3083V29.385Z" fill="#2C2B2F"/>
</svg>
