<svg width="18" height="18" viewBox="0 0 18 18" fill="none" xmlns="http://www.w3.org/2000/svg">
<g id="material-symbols-light:arrow-back-ios-new-rounded">
<path id="Vector" d="M11.3851 9L5.5988 3.21301C5.4888 3.10301 5.4343 2.97101 5.4353 2.81701C5.4363 2.66301 5.4923 2.53076 5.6033 2.42026C5.7138 2.30976 5.84605 2.25451 6.00005 2.25451C6.15405 2.25451 6.2863 2.30976 6.3968 2.42026L12.1276 8.14801C12.2491 8.26901 12.3376 8.40401 12.3931 8.55301C12.4491 8.70201 12.4771 8.85101 12.4771 9C12.4771 9.149 12.4491 9.298 12.3931 9.447C12.3371 9.596 12.2486 9.731 12.1276 9.85201L6.39755 15.585C6.28705 15.6955 6.15405 15.75 5.99855 15.7485C5.84355 15.747 5.7108 15.691 5.6003 15.5805C5.4898 15.47 5.4343 15.3378 5.4338 15.1838C5.4333 15.0298 5.4888 14.8978 5.6003 14.7878L11.3851 9Z" fill="#2C2B2F"/>
</g>
</svg>
