<svg width="24" height="24" viewBox="0 0 24 24" fill="none" xmlns="http://www.w3.org/2000/svg">
<g id="material-symbols-light:arrow-back-ios-new-rounded">
<path id="Vector" d="M12 15.1802L19.716 7.46523C19.8627 7.31856 20.0387 7.2459 20.244 7.24723C20.4493 7.24856 20.6257 7.32323 20.773 7.47123C20.9203 7.61856 20.994 7.7949 20.994 8.00023C20.994 8.20556 20.9203 8.3819 20.773 8.52923L13.136 16.1702C12.9747 16.3322 12.7947 16.4502 12.596 16.5242C12.3973 16.5989 12.1987 16.6362 12 16.6362C11.8013 16.6362 11.6027 16.5989 11.404 16.5242C11.2053 16.4496 11.0253 16.3316 10.864 16.1702L3.21999 8.53023C3.07266 8.3829 2.99999 8.20556 3.00199 7.99823C3.00399 7.79156 3.07866 7.61456 3.22599 7.46723C3.37333 7.3199 3.54966 7.2459 3.75499 7.24523C3.96033 7.24457 4.13633 7.31856 4.28299 7.46723L12 15.1802Z" fill="#2C2B2F"/>
</g>
</svg>
