<svg width="8" height="8" viewBox="0 0 8 8"  xmlns="http://www.w3.org/2000/svg">
<path d="M4.98996 4.18836L3.80667 2.98775L5.8829 0.906585L5.69984 0.722818C5.64763 0.67041 5.56949 0.644206 5.46542 0.644206C5.36134 0.644206 5.28303 0.67041 5.23049 0.722818L2.91984 3.04339C2.87034 3.09307 2.81356 3.11792 2.74949 3.11792C2.68542 3.11792 2.6288 3.09307 2.57965 3.04339C2.52337 2.99336 2.49524 2.93415 2.49524 2.86575C2.49524 2.79735 2.52015 2.7383 2.56999 2.68862L4.88725 0.36243C5.05166 0.19738 5.2471 0.114854 5.47355 0.114854C5.70001 0.114854 5.89544 0.19738 6.05986 0.36243L6.24292 0.546197L6.66346 0.123532C6.74549 0.0411775 6.84177 0 6.95229 0C7.0628 0 7.15908 0.0411775 7.24112 0.123532L7.88539 0.770801C7.96777 0.853156 8.00574 0.943338 7.9993 1.04135C7.99252 1.13902 7.94811 1.2292 7.86607 1.31189L4.98996 4.18836ZM0.410364 8C0.29239 8 0.194588 7.96086 0.116956 7.88259C0.0389852 7.80432 0 7.70597 0 7.58754V7.02705C0 6.95661 0.0123736 6.89076 0.0371209 6.82951C0.0618681 6.76825 0.101362 6.7104 0.155603 6.65595L3.43445 3.36192L4.63045 4.54977L1.33839 7.8438C1.28415 7.89825 1.22668 7.93789 1.166 7.96274C1.10532 7.98758 1.03972 8 0.969211 8H0.410364Z" fill="#ffffff"/>
</svg>
