<svg width="32" height="32" viewBox="0 0 32 32" fill="none" xmlns="http://www.w3.org/2000/svg">
<path d="M9.22801 16.6667L16.48 23.9186C16.6098 24.0484 16.6778 24.2013 16.684 24.3773C16.6893 24.5533 16.6182 24.7147 16.4707 24.8613C16.3249 25.0035 16.168 25.076 16 25.0787C15.8329 25.0804 15.6756 25.008 15.528 24.8613L7.42135 16.7547C7.3049 16.6373 7.22312 16.5182 7.17601 16.3973C7.1289 16.2764 7.10535 16.144 7.10535 16C7.10535 15.856 7.1289 15.7235 7.17601 15.6027C7.22312 15.4818 7.3049 15.3631 7.42135 15.2467L15.528 7.13865C15.6525 7.01421 15.804 6.94754 15.9827 6.93865C16.1622 6.92976 16.3253 6.99643 16.472 7.13865C16.6187 7.28532 16.692 7.44354 16.692 7.61332C16.692 7.78398 16.6187 7.94265 16.472 8.08932L9.22668 15.3333H24.6667C24.8569 15.3333 25.0156 15.3969 25.1427 15.524C25.2698 15.6511 25.3333 15.8098 25.3333 16C25.3333 16.1902 25.2698 16.3489 25.1427 16.476C25.0156 16.6031 24.8569 16.6667 24.6667 16.6667H9.22801Z" fill="#1D1B20"/>
</svg>
