<svg width="32" height="32" viewBox="0 0 32 32"  xmlns="http://www.w3.org/2000/svg">
<path d="M9.74396 28.1547C9.18129 28.1547 8.70707 27.9618 8.32129 27.576C7.93552 27.1902 7.74307 26.7164 7.74396 26.1547C7.74485 25.5929 7.93729 25.1187 8.32129 24.732C8.70707 24.3471 9.18129 24.1547 9.74396 24.1547C10.3066 24.1547 10.7804 24.3471 11.1653 24.732C11.5502 25.1169 11.7431 25.5911 11.744 26.1547C11.7448 26.7182 11.552 27.192 11.1653 27.576C10.7786 27.96 10.3048 28.1529 9.74396 28.1547ZM22.256 28.1547C21.6942 28.1547 21.2204 27.9618 20.8346 27.576C20.4488 27.1902 20.256 26.7164 20.256 26.1547C20.256 25.5929 20.4488 25.1187 20.8346 24.732C21.2204 24.3471 21.6942 24.1547 22.256 24.1547C22.8177 24.1547 23.292 24.3471 23.6786 24.732C24.0635 25.1178 24.256 25.592 24.256 26.1547C24.256 26.7164 24.0635 27.1902 23.6786 27.576C23.2929 27.9618 22.8186 28.1547 22.256 28.1547ZM7.84129 7.33334L11.4 14.8213H20.2466C20.4004 14.8213 20.5368 14.7827 20.656 14.7053C20.776 14.628 20.8786 14.5213 20.964 14.3853L24.452 8.052C24.5542 7.86356 24.5626 7.69689 24.4773 7.552C24.3911 7.40622 24.2457 7.33334 24.0413 7.33334H7.84129ZM7.18929 6H24.5493C25.128 6 25.5635 6.23645 25.856 6.70934C26.1493 7.18134 26.1648 7.668 25.9026 8.16934L22.092 15.1133C21.8991 15.4378 21.6484 15.6924 21.34 15.8773C21.0315 16.0622 20.6924 16.1547 20.3226 16.1547H10.8L9.17996 19.128C9.04307 19.3333 9.03863 19.5556 9.16663 19.7947C9.29463 20.0338 9.48707 20.1538 9.74396 20.1547H24.256V21.488H9.74396C8.96618 21.488 8.38574 21.16 8.00263 20.504C7.61951 19.848 7.61018 19.1893 7.97463 18.528L9.97996 14.9547L5.07729 4.66667H2.66663V3.33334H5.92263L7.18929 6Z" fill="#2C2B2F"/>
</svg>
