<svg width="33" height="33" viewBox="0 0 33 33" fill="none" xmlns="http://www.w3.org/2000/svg">
<path d="M15.8333 7.83333H12.5C12.3106 7.83333 12.1524 7.76933 12.0253 7.64133C11.8982 7.51333 11.8342 7.35466 11.8333 7.16533C11.8324 6.97599 11.8964 6.81777 12.0253 6.69066C12.1542 6.56355 12.3124 6.49999 12.5 6.49999H15.8333V3.16666C15.8333 2.97733 15.8973 2.81911 16.0253 2.69199C16.1533 2.56488 16.312 2.50088 16.5013 2.49999C16.6906 2.4991 16.8489 2.56311 16.976 2.69199C17.1031 2.82088 17.1666 2.9791 17.1666 3.16666V6.49999H20.5C20.6893 6.49999 20.8475 6.56399 20.9746 6.69199C21.1017 6.81999 21.1657 6.97866 21.1666 7.16799C21.1675 7.35733 21.1035 7.51555 20.9746 7.64266C20.8457 7.76977 20.6875 7.83333 20.5 7.83333H17.1666V11.1667C17.1666 11.356 17.1026 11.5142 16.9746 11.6413C16.8466 11.7684 16.688 11.8324 16.4986 11.8333C16.3093 11.8342 16.1511 11.7702 16.024 11.6413C15.8969 11.5124 15.8333 11.3542 15.8333 11.1667V7.83333ZM10.244 28.6547C9.6813 28.6547 9.20708 28.4618 8.8213 28.076C8.43552 27.6902 8.24308 27.2164 8.24397 26.6547C8.24486 26.0929 8.4373 25.6187 8.8213 25.232C9.20708 24.8471 9.6813 24.6547 10.244 24.6547C10.8066 24.6547 11.2804 24.8471 11.6653 25.232C12.0502 25.6169 12.2431 26.0911 12.244 26.6547C12.2449 27.2182 12.052 27.692 11.6653 28.076C11.2786 28.46 10.8049 28.6529 10.244 28.6547ZM22.756 28.6547C22.1942 28.6547 21.7204 28.4618 21.3346 28.076C20.9489 27.6902 20.756 27.2164 20.756 26.6547C20.756 26.0929 20.9489 25.6187 21.3346 25.232C21.7204 24.8471 22.1942 24.6547 22.756 24.6547C23.3177 24.6547 23.792 24.8471 24.1786 25.232C24.5635 25.6178 24.756 26.092 24.756 26.6547C24.756 27.2164 24.5635 27.6902 24.1786 28.076C23.7929 28.4618 23.3186 28.6547 22.756 28.6547ZM5.5773 5.16666H3.8333C3.64397 5.16666 3.48575 5.10266 3.35864 4.97466C3.23152 4.84666 3.16752 4.68799 3.16664 4.49866C3.16575 4.30933 3.22975 4.1511 3.35864 4.02399C3.48752 3.89688 3.64575 3.83333 3.8333 3.83333H5.74797C5.96041 3.83333 6.15375 3.88666 6.32797 3.99333C6.50219 4.09999 6.63286 4.25111 6.71997 4.44666L11.8933 15.3213H20.7386C20.8924 15.3213 21.0293 15.2827 21.1493 15.2053C21.2684 15.128 21.3706 15.0213 21.456 14.8853L25.9306 6.83333C25.9911 6.73111 26.0711 6.64977 26.1706 6.58933C26.2702 6.52888 26.38 6.49911 26.5 6.49999C26.7533 6.49999 26.944 6.60977 27.072 6.82933C27.1991 7.04888 27.2004 7.26977 27.076 7.49199L22.5906 15.612C22.3977 15.9373 22.1466 16.1924 21.8373 16.3773C21.528 16.5622 21.1893 16.6547 20.8213 16.6547H11.3L9.67997 19.628C9.54308 19.8333 9.53864 20.0555 9.66664 20.2947C9.79464 20.5338 9.98708 20.6538 10.244 20.6547H24.0893C24.2786 20.6547 24.4373 20.7182 24.5653 20.8453C24.6924 20.9733 24.756 21.132 24.756 21.3213C24.756 21.5107 24.6924 21.6689 24.5653 21.796C24.4382 21.9231 24.2795 21.9871 24.0893 21.988H10.244C9.46619 21.988 8.88441 21.6613 8.49864 21.008C8.11286 20.3547 8.10486 19.6947 8.47464 19.028L10.48 15.4547L5.5773 5.16666Z" fill="white"/>
</svg>
