<svg width="32" height="32" viewBox="0 0 32 32" fill="none" xmlns="http://www.w3.org/2000/svg">
<g id="Property 1=&#208;&#149;&#209;&#129;&#209;&#130;&#209;&#140; &#209;&#130;&#208;&#190;&#208;&#178;&#208;&#176;&#209;&#128;&#209;&#139;">
<path id="Vector" d="M9.74399 28.1546C9.18132 28.1546 8.7071 27.9617 8.32132 27.5759C7.93555 27.1901 7.7431 26.7164 7.74399 26.1546C7.74488 25.5928 7.93732 25.1186 8.32132 24.7319C8.7071 24.347 9.18132 24.1546 9.74399 24.1546C10.3067 24.1546 10.7804 24.347 11.1653 24.7319C11.5502 25.1168 11.7431 25.591 11.744 26.1546C11.7449 26.7181 11.552 27.1919 11.1653 27.5759C10.7787 27.9599 10.3049 28.1528 9.74399 28.1546ZM22.256 28.1546C21.6942 28.1546 21.2204 27.9617 20.8347 27.5759C20.4489 27.1901 20.256 26.7164 20.256 26.1546C20.256 25.5928 20.4489 25.1186 20.8347 24.7319C21.2204 24.347 21.6942 24.1546 22.256 24.1546C22.8178 24.1546 23.292 24.347 23.6787 24.7319C24.0635 25.1177 24.256 25.5919 24.256 26.1546C24.256 26.7164 24.0635 27.1901 23.6787 27.5759C23.2929 27.9617 22.8187 28.1546 22.256 28.1546ZM7.84132 7.33325L11.4 14.8213H20.2467C20.4004 14.8213 20.5369 14.7826 20.656 14.7053C20.776 14.6279 20.8787 14.5213 20.964 14.3853L24.452 8.05192C24.5542 7.86347 24.5627 7.69681 24.4773 7.55192C24.3911 7.40614 24.2458 7.33325 24.0413 7.33325H7.84132ZM7.18932 5.99992H24.5493C25.128 5.99992 25.5635 6.23636 25.856 6.70925C26.1493 7.18125 26.1649 7.66792 25.9027 8.16925L22.092 15.1133C21.8991 15.4377 21.6484 15.6924 21.34 15.8773C21.0315 16.0621 20.6924 16.1546 20.3227 16.1546H10.8L9.17999 19.1279C9.0431 19.3333 9.03866 19.5555 9.16666 19.7946C9.29466 20.0337 9.4871 20.1537 9.74399 20.1546H24.256V21.4879H9.74399C8.96621 21.4879 8.38577 21.1599 8.00266 20.5039C7.61955 19.8479 7.61021 19.1893 7.97466 18.5279L9.97999 14.9546L5.07732 4.66659H2.66666V3.33325H5.92266L7.18932 5.99992Z" fill="#2C2B2F"/>
<circle id="Ellipse 1" cx="26" cy="5" r="4" fill="#D1005B"/>
</g>
</svg>
