<svg width="18" height="18" viewBox="0 0 18 18" fill="none" xmlns="http://www.w3.org/2000/svg">
<g id="material-symbols-light:content-copy-outline">
<path id="Vector" d="M6.837 12.4585C6.4915 12.4585 6.20325 12.343 5.97225 12.112C5.74125 11.881 5.6255 11.5927 5.625 11.2472V3.16975C5.625 2.82475 5.74075 2.5365 5.97225 2.305C6.20375 2.0735 6.492 1.958 6.837 1.9585H12.6638C13.0088 1.9585 13.297 2.074 13.5285 2.305C13.76 2.536 13.8755 2.82425 13.875 3.16975V11.2472C13.875 11.5922 13.7595 11.8802 13.5285 12.1112C13.2975 12.3422 13.009 12.458 12.663 12.4585H6.837ZM6.837 11.7085H12.6638C12.7788 11.7085 12.8845 11.6605 12.981 11.5645C13.0775 11.4685 13.1255 11.3627 13.125 11.2472V3.16975C13.125 3.05475 13.077 2.949 12.981 2.8525C12.885 2.756 12.779 2.708 12.663 2.7085H6.837C6.7215 2.7085 6.6155 2.7565 6.519 2.8525C6.4225 2.9485 6.3745 3.05425 6.375 3.16975V11.2472C6.375 11.3622 6.423 11.468 6.519 11.5645C6.615 11.661 6.72075 11.709 6.83625 11.7085M4.58625 14.7085C4.24125 14.7085 3.953 14.593 3.7215 14.362C3.49 14.131 3.3745 13.8427 3.375 13.4972V4.66975H4.125V13.4972C4.125 13.6122 4.173 13.718 4.269 13.8145C4.365 13.911 4.47075 13.959 4.58625 13.9585H11.1638V14.7085H4.58625Z" fill="#595959"/>
</g>
</svg>
