<svg width="64" height="40" viewBox="0 0 64 40" fill="none" xmlns="http://www.w3.org/2000/svg">
<path d="M22 31.6667H28.1533V23.205C28.1533 22.8239 28.2828 22.5044 28.5416 22.2467C28.7994 21.9878 29.1189 21.8583 29.5 21.8583H34.5C34.8811 21.8583 35.2011 21.9878 35.46 22.2467C35.7178 22.5044 35.8466 22.8239 35.8466 23.205V31.6667H42V17.18C42 17.0089 41.9628 16.8533 41.8883 16.7133C41.8139 16.5733 41.7122 16.4511 41.5833 16.3467L32.61 9.58332C32.4389 9.43443 32.2355 9.35998 32 9.35998C31.7644 9.35998 31.5616 9.43443 31.3916 9.58332L22.4166 16.3467C22.2889 16.4533 22.1872 16.5755 22.1116 16.7133C22.0361 16.8511 21.9989 17.0067 22 17.18V31.6667ZM20.3333 31.6667V17.18C20.3333 16.7533 20.4289 16.3494 20.62 15.9683C20.8111 15.5872 21.0744 15.2733 21.41 15.0267L30.385 8.22998C30.855 7.8711 31.3916 7.69165 31.995 7.69165C32.5983 7.69165 33.1383 7.8711 33.615 8.22998L42.59 15.025C42.9266 15.2717 43.19 15.5861 43.38 15.9683C43.5711 16.3494 43.6666 16.7533 43.6666 17.18V31.6667C43.6666 32.1133 43.5005 32.5028 43.1683 32.835C42.8361 33.1672 42.4466 33.3333 42 33.3333H35.5266C35.1444 33.3333 34.8244 33.2044 34.5666 32.9467C34.3089 32.6878 34.18 32.3678 34.18 31.9867V23.5267H29.82V31.9867C29.82 32.3689 29.6911 32.6889 29.4333 32.9467C29.1755 33.2044 28.8561 33.3333 28.475 33.3333H22C21.5533 33.3333 21.1639 33.1672 20.8316 32.835C20.4994 32.5028 20.3333 32.1133 20.3333 31.6667Z" fill="#2C2B2F"/>
</svg>
