<svg width="32" height="32" viewBox="0 0 32 32" fill="none" xmlns="http://www.w3.org/2000/svg">
<path d="M16 27.7892C15.8791 27.7892 15.7516 27.778 15.6174 27.7558C15.4831 27.7336 15.3587 27.7003 15.244 27.6558C12.6191 26.6558 10.5334 24.9598 8.98669 22.5678C7.44002 20.1758 6.66669 17.5865 6.66669 14.7998V9.08916C6.66669 8.63227 6.79691 8.22071 7.05735 7.85449C7.31691 7.48827 7.65335 7.22293 8.06669 7.05849L15.2467 4.39182C15.5062 4.2976 15.7574 4.25049 16 4.25049C16.2427 4.25049 16.4942 4.2976 16.7547 4.39182L23.9334 7.05849C24.3458 7.22382 24.6822 7.48915 24.9427 7.85449C25.2031 8.22071 25.3334 8.63227 25.3334 9.08916V14.7998C25.3334 17.5865 24.56 20.1758 23.0134 22.5678C21.4667 24.9598 19.3814 26.6558 16.7574 27.6558C16.6409 27.7003 16.516 27.7336 16.3827 27.7558C16.2494 27.778 16.1218 27.7892 16 27.7892ZM16 26.5332C18.3111 25.7998 20.2222 24.3332 21.7334 22.1332C23.2445 19.9332 24 17.4887 24 14.7998V9.06382C24 8.89316 23.9529 8.73938 23.8587 8.60249C23.7654 8.4656 23.6329 8.36338 23.4614 8.29582L16.2827 5.62916C16.1974 5.5936 16.1031 5.57582 16 5.57582C15.8969 5.57582 15.8027 5.5936 15.7174 5.62916L8.53869 8.29582C8.36713 8.36338 8.23469 8.4656 8.14135 8.60249C8.04713 8.73938 8.00002 8.89316 8.00002 9.06382V14.7998C8.00002 17.4887 8.75558 19.9332 10.2667 22.1332C11.7778 24.3332 13.6889 25.7998 16 26.5332Z" fill="#2C2B2F"/>
</svg>
