<svg width="44" height="44" viewBox="0 0 44 44" fill="none" xmlns="http://www.w3.org/2000/svg">
<path d="M20.0548 27.4633L27.0875 22.935C27.4444 22.7113 27.6228 22.4009 27.6228 22.0037C27.6228 21.6064 27.4444 21.2936 27.0875 21.065L20.053 16.5367C19.6888 16.2776 19.3111 16.2549 18.92 16.4688C18.5289 16.6827 18.3333 17.0164 18.3333 17.4698V26.5302C18.3333 26.9836 18.5289 27.3173 18.92 27.5312C19.3111 27.7451 19.6888 27.7231 20.053 27.4652M22.0055 38.5C19.7248 38.5 17.5798 38.0673 15.5705 37.202C13.5624 36.3354 11.8152 35.1597 10.329 33.6747C8.84278 32.1897 7.66639 30.4443 6.79983 28.4387C5.93328 26.433 5.5 24.2886 5.5 22.0055C5.5 19.7224 5.93328 17.5774 6.79983 15.5705C7.66517 13.5624 8.83911 11.8152 10.3217 10.329C11.8042 8.84278 13.5502 7.66639 15.5595 6.79983C17.5688 5.93328 19.7138 5.5 21.9945 5.5C24.2752 5.5 26.4202 5.93328 28.4295 6.79983C30.4376 7.66517 32.1848 8.83972 33.671 10.3235C35.1572 11.8073 36.3336 13.5532 37.2002 15.5613C38.0667 17.5694 38.5 19.7138 38.5 21.9945C38.5 24.2752 38.0673 26.4202 37.202 28.4295C36.3367 30.4388 35.1609 32.186 33.6747 33.671C32.1884 35.156 30.4431 36.3324 28.4387 37.2002C26.4342 38.0679 24.2898 38.5012 22.0055 38.5ZM22 36.6667C26.0944 36.6667 29.5625 35.2458 32.4042 32.4042C35.2458 29.5625 36.6667 26.0944 36.6667 22C36.6667 17.9056 35.2458 14.4375 32.4042 11.5958C29.5625 8.75417 26.0944 7.33333 22 7.33333C17.9056 7.33333 14.4375 8.75417 11.5958 11.5958C8.75417 14.4375 7.33333 17.9056 7.33333 22C7.33333 26.0944 8.75417 29.5625 11.5958 32.4042C14.4375 35.2458 17.9056 36.6667 22 36.6667Z" fill="white"/>
</svg>
