<svg width="32" height="32" viewBox="0 0 32 32" fill="none" xmlns="http://www.w3.org/2000/svg">
<path d="M9.33333 16.6665H18.6667C18.8569 16.6665 19.0156 16.6029 19.1427 16.4758C19.2698 16.3487 19.3333 16.1901 19.3333 15.9998C19.3333 15.8096 19.2698 15.6509 19.1427 15.5238C19.0156 15.3967 18.8569 15.3332 18.6667 15.3332H9.33333C9.144 15.3332 8.98533 15.3967 8.85733 15.5238C8.72933 15.6509 8.66578 15.8096 8.66667 15.9998C8.66756 16.1901 8.73111 16.3487 8.85733 16.4758C8.98356 16.6029 9.14222 16.6665 9.33333 16.6665ZM9.33333 12.6665H18.6667C18.8569 12.6665 19.0156 12.6029 19.1427 12.4758C19.2698 12.3487 19.3333 12.1901 19.3333 11.9998C19.3333 11.8096 19.2698 11.6509 19.1427 11.5238C19.0156 11.3967 18.8569 11.3332 18.6667 11.3332H9.33333C9.144 11.3332 8.98533 11.3967 8.85733 11.5238C8.72933 11.6509 8.66578 11.8096 8.66667 11.9998C8.66756 12.1901 8.73111 12.3487 8.85733 12.4758C8.98356 12.6029 9.14222 12.6665 9.33333 12.6665ZM6.15467 25.3332C5.54044 25.3332 5.028 25.1278 4.61733 24.7172C4.20667 24.3065 4.00089 23.7936 4 23.1785V8.82117C4 8.20695 4.20578 7.6945 4.61733 7.28384C5.02889 6.87317 5.54089 6.66739 6.15333 6.6665H25.8467C26.46 6.6665 26.972 6.87228 27.3827 7.28384C27.7933 7.69539 27.9991 8.20784 28 8.82117V23.1798C28 23.7932 27.7942 24.3056 27.3827 24.7172C26.9711 25.1287 26.4591 25.3341 25.8467 25.3332H6.15467ZM6.15467 23.9998H25.8467C26.0511 23.9998 26.2391 23.9145 26.4107 23.7438C26.5822 23.5732 26.6676 23.3847 26.6667 23.1785V8.82117C26.6667 8.61584 26.5813 8.42739 26.4107 8.25584C26.24 8.08428 26.052 7.99895 25.8467 7.99984H6.15333C5.94889 7.99984 5.76089 8.08517 5.58933 8.25584C5.41778 8.4265 5.33244 8.61495 5.33333 8.82117V23.1798C5.33333 23.3843 5.41867 23.5723 5.58933 23.7438C5.76 23.9154 5.948 24.0007 6.15333 23.9998" fill="#2C2B2F"/>
</svg>
