<svg width="44" height="44" viewBox="0 0 44 44" fill="none" xmlns="http://www.w3.org/2000/svg">
<path d="M38.5 22C38.5 24.1668 38.0732 26.3124 37.244 28.3143C36.4148 30.3161 35.1994 32.1351 33.6673 33.6673C32.1351 35.1994 30.3161 36.4148 28.3143 37.244C26.3124 38.0732 24.1668 38.5 22 38.5C19.8332 38.5 17.6876 38.0732 15.6857 37.244C13.6839 36.4148 11.8649 35.1994 10.3327 33.6673C8.80057 32.1351 7.58519 30.3161 6.75599 28.3143C5.92678 26.3124 5.5 24.1668 5.5 22C5.5 17.6239 7.23839 13.4271 10.3327 10.3327C13.4271 7.23839 17.6239 5.5 22 5.5C26.3761 5.5 30.5729 7.23839 33.6673 10.3327C36.7616 13.4271 38.5 17.6239 38.5 22Z" stroke="white" stroke-width="2" stroke-linecap="round" stroke-linejoin="round"/>
<path d="M25.674 20.0695V16.3625C25.674 11.5207 18.326 11.7957 18.326 16.3625V20.0677M16.5036 20.0677H27.4963C28.5101 20.0677 29.3333 20.8982 29.3333 21.9212V27.4798C29.3333 28.5028 28.5101 29.3333 27.4963 29.3333H16.5036C16.2614 29.3324 16.0218 29.2837 15.7984 29.1901C15.575 29.0966 15.3722 28.9599 15.2016 28.788C15.0311 28.616 14.896 28.4122 14.8042 28.188C14.7124 27.9639 14.6657 27.7239 14.6666 27.4817V21.9212C14.6666 20.8982 15.4898 20.0677 16.5036 20.0677Z" stroke="white" stroke-width="2" stroke-linecap="round" stroke-linejoin="round"/>
</svg>
