<svg width="64" height="38" viewBox="0 0 64 38" fill="none" xmlns="http://www.w3.org/2000/svg">
<path d="M23.4754 33.25C22.746 33.25 22.1374 33.0062 21.6498 32.5185C21.1621 32.0308 20.9177 31.4223 20.9167 30.6929V13.6404C20.9167 12.9121 21.161 12.3041 21.6498 11.8164C22.1385 11.3287 22.747 11.0844 23.4754 11.0833H26.4584V10.2917C26.4584 8.75267 26.9972 7.44431 28.0749 6.36658C29.1527 5.28886 30.461 4.75 32 4.75C33.539 4.75 34.8474 5.28886 35.9251 6.36658C37.0028 7.44431 37.5417 8.75267 37.5417 10.2917V11.0833H40.5263C41.2546 11.0833 41.8626 11.3277 42.3503 11.8164C42.8379 12.3051 43.0823 12.9137 43.0834 13.642V30.6929C43.0834 31.4213 42.839 32.0298 42.3503 32.5185C41.8616 33.0072 41.2536 33.2511 40.5263 33.25H23.4754ZM23.4754 31.6667H40.5263C40.7691 31.6667 40.9923 31.5653 41.196 31.3627C41.3997 31.16 41.5011 30.9362 41.5 30.6913V13.642C41.5 13.3982 41.3987 13.1744 41.196 12.9707C40.9934 12.7669 40.7696 12.6656 40.5247 12.6667H37.5417V16.625C37.5417 16.8509 37.4662 17.0393 37.3153 17.1903C37.1643 17.3412 36.9759 17.4167 36.75 17.4167C36.5241 17.4167 36.3357 17.3412 36.1848 17.1903C36.0338 17.0393 35.9584 16.8509 35.9584 16.625V12.6667H28.0417V16.625C28.0417 16.8509 27.9662 17.0393 27.8153 17.1903C27.6643 17.3412 27.4759 17.4167 27.25 17.4167C27.0241 17.4167 26.8357 17.3412 26.6848 17.1903C26.5338 17.0393 26.4584 16.8509 26.4584 16.625V12.6667H23.4754C23.2315 12.6667 23.0077 12.768 22.804 12.9707C22.6003 13.1733 22.499 13.3971 22.5 13.642V30.6929C22.5 30.9357 22.6014 31.1589 22.804 31.3627C23.0067 31.5664 23.2299 31.6677 23.4738 31.6667M28.0417 11.0833H35.9584V10.2917C35.9584 9.177 35.5773 8.23861 34.8152 7.4765C34.0531 6.71439 33.1147 6.33333 32 6.33333C30.8854 6.33333 29.947 6.71439 29.1849 7.4765C28.4227 8.23861 28.0417 9.177 28.0417 10.2917V11.0833Z" fill="#2C2B2F"/>
</svg>
