<svg width="32" height="32" viewBox="0 0 32 32"  xmlns="http://www.w3.org/2000/svg">
<path d="M2.66663 23.18L2.99996 21.8467H8.97329L8.63996 23.18H2.66663ZM5.33329 18.1533L5.66663 16.82H12.9733L12.64 18.1533H5.33329ZM24.716 26.692L25.3826 21.308L26.3226 13.564L26.6826 10.6747L24.716 26.692ZM8.74263 28C8.31774 28 7.95107 27.8756 7.64263 27.6267C7.33329 27.3778 7.17863 27.0578 7.17863 26.6667H23.8946C24.1346 26.6667 24.34 26.5898 24.5106 26.436C24.6813 26.2822 24.7835 26.0858 24.8173 25.8467L26.5546 11.5973C26.5884 11.3573 26.52 11.144 26.3493 10.9573C26.1786 10.7707 25.9733 10.6764 25.7333 10.6747H22.3493L21.9306 14.0467C21.904 14.236 21.8186 14.3893 21.6746 14.5067C21.5306 14.624 21.364 14.6773 21.1746 14.6667C21.0013 14.6569 20.8564 14.5813 20.74 14.44C20.6226 14.2987 20.5777 14.1418 20.6053 13.9693L21.008 10.6747H14.3493L13.9306 14.0387C13.904 14.228 13.8186 14.3827 13.6746 14.5027C13.5306 14.6227 13.3635 14.6773 13.1733 14.6667C13.0008 14.656 12.8546 14.5791 12.7346 14.436C12.6146 14.2929 12.5684 14.1347 12.596 13.9613L12.9986 10.6747H8.89729C8.9684 10.2098 9.20174 9.86978 9.59729 9.65467C9.99196 9.44045 10.4253 9.33333 10.8973 9.33333H13.1546L13.2306 8.66667C13.4084 7.18845 13.9253 6.04089 14.7813 5.224C15.6373 4.40711 16.8044 3.99911 18.2826 4C19.5848 4 20.6484 4.49333 21.4733 5.48C22.2982 6.46667 22.648 7.61422 22.5226 8.92267L22.472 9.33333H25.9226C26.5182 9.33867 27.0142 9.56445 27.4106 10.0107C27.8071 10.456 27.9671 10.976 27.8906 11.5707L26.1213 25.9307C26.0493 26.5289 25.7888 27.0236 25.34 27.4147C24.8911 27.8058 24.3675 28.0009 23.7693 28H8.74263ZM14.488 9.33333H21.1466L21.1973 8.92267C21.288 7.96711 21.0293 7.13067 20.4213 6.41333C19.8142 5.69333 19.0413 5.33333 18.1026 5.33333C17.0511 5.33333 16.2293 5.62356 15.6373 6.204C15.0453 6.78445 14.6875 7.60533 14.564 8.66667L14.488 9.33333Z" fill="#2C2B2F"/>
</svg>
