<svg width="32" height="32" viewBox="0 0 32 32" fill="none" xmlns="http://www.w3.org/2000/svg">
<path d="M13.1459 21.2804C10.8736 21.2804 8.94764 20.4915 7.36802 18.9137C5.78934 17.3368 5 15.4123 5 13.1402C5 10.8681 5.78934 8.9432 7.36802 7.36535C8.94669 5.7875 10.8727 4.99905 13.1459 5C15.4192 5.00095 17.3447 5.78987 18.9224 7.36677C20.5001 8.94367 21.2895 10.8681 21.2904 13.1402C21.2904 14.1271 21.1156 15.0822 20.7659 16.0056C20.4163 16.929 19.9567 17.7189 19.3872 18.3752L27.7861 26.7669C27.9188 26.8995 27.9898 27.0629 27.9993 27.257C28.0078 27.4493 27.9368 27.6212 27.7861 27.7727C27.6345 27.9242 27.4668 28 27.2829 28C27.0991 28 26.9314 27.9242 26.7798 27.7727L18.3823 19.3796C17.6716 19.9848 16.8543 20.4531 15.9304 20.7846C15.0065 21.1161 14.0779 21.2818 13.1445 21.2818M13.1445 19.8612C15.0302 19.8612 16.6226 19.2125 17.9217 17.9149C19.2199 16.6174 19.869 15.0259 19.869 13.1402C19.869 11.2546 19.2204 9.66346 17.9232 8.36689C16.6259 7.07033 15.034 6.42158 13.1473 6.42063C11.2607 6.42063 9.66828 7.06939 8.37009 8.36689C7.07189 9.6644 6.42233 11.2555 6.42138 13.1402C6.42043 15.0249 7.06953 16.616 8.36867 17.9135C9.6678 19.211 11.2597 19.8598 13.1445 19.8598" fill="#2C2B2F"/>
</svg>
