<svg width="32" height="32" viewBox="0 0 32 32" fill="none" xmlns="http://www.w3.org/2000/svg">
<path d="M14.6133 28C14.3031 28 14.0342 27.8982 13.8067 27.6947C13.5782 27.4911 13.4364 27.2373 13.3813 26.9333L13.0307 24.144C12.6049 24.0151 12.1444 23.8133 11.6493 23.5387C11.1551 23.2631 10.7342 22.968 10.3867 22.6533L7.83332 23.752C7.55154 23.8764 7.26532 23.8898 6.97465 23.792C6.68399 23.6942 6.45999 23.5098 6.30265 23.2387L4.86399 20.76C4.70665 20.4889 4.66043 20.2053 4.72532 19.9093C4.79021 19.6133 4.94488 19.3707 5.18932 19.1813L7.41865 17.5147C7.37865 17.2729 7.34621 17.0245 7.32132 16.7693C7.29465 16.5133 7.28132 16.2649 7.28132 16.024C7.28132 15.8 7.29465 15.5645 7.32132 15.3173C7.34621 15.0702 7.37865 14.792 7.41865 14.4827L5.18932 12.816C4.94488 12.6267 4.79465 12.38 4.73865 12.076C4.68265 11.772 4.73288 11.484 4.88932 11.212L6.30265 8.81201C6.45999 8.55689 6.68399 8.37645 6.97465 8.27067C7.26532 8.1649 7.55154 8.17423 7.83332 8.29867L10.3613 9.37067C10.7595 9.03912 11.1907 8.74001 11.6547 8.47334C12.1169 8.20667 12.5671 8.00045 13.0053 7.85467L13.3827 5.06534C13.4369 4.76134 13.5782 4.50756 13.8067 4.30401C14.0351 4.10045 14.304 3.99912 14.6133 4.00001H17.3867C17.6969 4.00001 17.9658 4.10178 18.1933 4.30534C18.4218 4.50889 18.5635 4.76267 18.6187 5.06667L18.9693 7.88267C19.4804 8.06223 19.932 8.26801 20.324 8.50001C20.716 8.73201 21.12 9.02267 21.536 9.37201L24.192 8.30001C24.4747 8.17556 24.7613 8.16623 25.052 8.27201C25.3427 8.37778 25.5662 8.55823 25.7227 8.81334L27.136 11.2387C27.2933 11.5107 27.3395 11.7942 27.2747 12.0893C27.2098 12.3845 27.0551 12.6276 26.8107 12.8187L24.48 14.56C24.5529 14.8356 24.5938 15.0885 24.6027 15.3187C24.6115 15.5489 24.616 15.7756 24.616 15.9987C24.616 16.2058 24.6071 16.424 24.5893 16.6533C24.5724 16.8836 24.5333 17.1618 24.472 17.488L26.7253 19.1813C26.9698 19.3707 27.1289 19.6133 27.2027 19.9093C27.2764 20.2053 27.2347 20.4889 27.0773 20.76L25.656 23.212C25.4995 23.484 25.2715 23.6685 24.972 23.7653C24.6724 23.8631 24.3818 23.8498 24.1 23.7253L21.536 22.6267C21.1209 22.976 20.7031 23.2751 20.2827 23.524C19.8622 23.7729 19.4244 23.9707 18.9693 24.1173L18.6173 26.932C18.5631 27.236 18.4218 27.4898 18.1933 27.6933C17.9649 27.8969 17.696 27.9991 17.3867 28H14.6133ZM14.6667 26.6667H17.2747L17.7667 23.056C18.4387 22.8782 19.0431 22.6342 19.58 22.324C20.1187 22.0138 20.6662 21.5889 21.2227 21.0493L24.5493 22.4667L25.8747 20.2L22.956 18.008C23.0671 17.6285 23.1409 17.2791 23.1773 16.96C23.2129 16.6418 23.2307 16.3218 23.2307 16C23.2307 15.6622 23.2129 15.3422 23.1773 15.04C23.1418 14.7378 23.068 14.4058 22.956 14.044L25.9253 11.8L24.6 9.53334L21.1973 10.96C20.7938 10.5165 20.2635 10.1009 19.6067 9.71334C18.9489 9.32667 18.3267 9.07023 17.74 8.94401L17.3333 5.33334H14.6747L14.2587 8.91867C13.5867 9.06178 12.9689 9.29289 12.4053 9.61201C11.8427 9.93023 11.2827 10.368 10.7253 10.9253L7.39999 9.53334L6.07465 11.8L8.96665 13.96C8.85554 14.2587 8.77777 14.5831 8.73332 14.9333C8.68888 15.2836 8.66665 15.648 8.66665 16.0267C8.66665 16.3645 8.68888 16.7 8.73332 17.0333C8.77777 17.3667 8.8471 17.6911 8.94132 18.0067L6.07465 20.2L7.39999 22.4667L10.7 21.0667C11.2235 21.5947 11.7667 22.0182 12.3293 22.3373C12.8929 22.6565 13.5275 22.9049 14.2333 23.0827L14.6667 26.6667ZM15.964 19.3333C16.8938 19.3333 17.6818 19.0102 18.328 18.364C18.9742 17.7178 19.2973 16.9298 19.2973 16C19.2973 15.0702 18.9742 14.2822 18.328 13.636C17.6818 12.9898 16.8938 12.6667 15.964 12.6667C15.0289 12.6667 14.2395 12.9898 13.596 13.636C12.9524 14.2822 12.6307 15.0702 12.6307 16C12.6307 16.9298 12.9524 17.7178 13.596 18.364C14.2395 19.0102 15.0289 19.3333 15.964 19.3333Z" fill="#2C2B2F"/>
</svg>
