<svg width="32" height="32" viewBox="0 0 32 32" fill="none" xmlns="http://www.w3.org/2000/svg">
<path d="M17.256 24H15.3333C12.5493 24 10.1866 23.0298 8.24531 21.0893C6.30398 19.1489 5.33331 16.7876 5.33331 14.0053C5.33331 11.2231 6.30354 8.86 8.24398 6.916C10.1844 4.972 12.5466 4 15.3306 4C16.7226 4 18.0249 4.26044 19.2373 4.78133C20.4498 5.30133 21.5089 6.01422 22.4146 6.92C23.3204 7.82578 24.0333 8.88311 24.5533 10.092C25.0733 11.3009 25.3333 12.6036 25.3333 14C25.3333 16.5511 24.6782 18.8907 23.368 21.0187C22.0578 23.1467 20.3898 24.9156 18.364 26.3253C18.2449 26.3938 18.1249 26.4316 18.004 26.4387C17.8849 26.4449 17.7706 26.4182 17.6613 26.3587C17.552 26.2991 17.4649 26.2231 17.4 26.1307C17.3351 26.0382 17.3 25.9213 17.2946 25.78L17.256 24ZM18.6666 24.4667C20.2444 23.1333 21.528 21.5724 22.5173 19.784C23.5066 17.9956 24.0009 16.0676 24 14C24 11.5778 23.1609 9.528 21.4826 7.85067C19.8044 6.17333 17.7546 5.33422 15.3333 5.33333C12.912 5.33244 10.8622 6.17156 9.18398 7.85067C7.50576 9.52978 6.66665 11.5796 6.66665 14C6.66665 16.4204 7.50576 18.4707 9.18398 20.1507C10.8622 21.8307 12.912 22.6693 15.3333 22.6667H18.6666V24.4667ZM15.3813 20.7613C15.6533 20.7613 15.8844 20.6653 16.0746 20.4733C16.2649 20.2813 16.3595 20.0489 16.3586 19.776C16.3578 19.5031 16.2618 19.272 16.0706 19.0827C15.8795 18.8933 15.6471 18.7982 15.3733 18.7973C15.0995 18.7964 14.8684 18.8929 14.68 19.0867C14.4915 19.2804 14.3964 19.5129 14.3946 19.784C14.3929 20.0551 14.4889 20.2862 14.6826 20.4773C14.8764 20.6684 15.1093 20.7631 15.3813 20.7613ZM12.612 10.936C12.7666 10.9956 12.9209 10.9916 13.0746 10.924C13.2284 10.8564 13.3542 10.7476 13.452 10.5973C13.6342 10.2969 13.8929 10.0569 14.228 9.87733C14.5631 9.69956 14.9489 9.61067 15.3853 9.61067C16.0395 9.61067 16.5715 9.78178 16.9813 10.124C17.3911 10.4662 17.5955 10.9293 17.5946 11.5133C17.5946 11.8742 17.5071 12.212 17.332 12.5267C17.1569 12.8404 16.8582 13.2084 16.436 13.6307C15.8635 14.188 15.4524 14.6662 15.2026 15.0653C14.9529 15.4644 14.8284 15.852 14.8293 16.228C14.8293 16.4031 14.8862 16.5524 15 16.676C15.1138 16.7996 15.2515 16.8618 15.4133 16.8627C15.5751 16.8636 15.7106 16.8013 15.82 16.676C15.9293 16.5533 15.9942 16.4018 16.0146 16.2213C16.0582 15.9458 16.2071 15.6396 16.4613 15.3027C16.7155 14.9658 17.0249 14.6156 17.3893 14.252C17.8906 13.7507 18.2493 13.2782 18.4653 12.8347C18.6813 12.3902 18.7893 11.9462 18.7893 11.5027C18.7893 10.588 18.4738 9.85244 17.8426 9.296C17.2115 8.73956 16.4093 8.46133 15.436 8.46133C14.7818 8.46133 14.1791 8.62089 13.628 8.94C13.0769 9.25911 12.6626 9.63956 12.3853 10.0813C12.2875 10.2618 12.2586 10.4342 12.2986 10.5987C12.3386 10.7631 12.4431 10.8756 12.612 10.936Z" fill="#2C2B2F"/>
</svg>
